# xmcd
#
# Track frame offsets:
#	150
#	24806
#	43418
#	59109
#	104507
#	121130
#	155488
#	185633
#	199190
#	212150
#	248177
#	262502
#	293296
#
# Disc length: 4079 seconds
#
# Revision: 0
# Processed by: cddbd v1.5.2PL0 Copyright (c) Steve Scherf et al.
# Submitted via: audiograbber 1.82.01
#
DISCID=b80fed0d
DTITLE=Die Dr3i - 001 - Das Seeungeheuer [CD2)
DYEAR=2006
DGENRE=Hörspiel
TTITLE0=Feindbesuch
TTITLE1=Die Geliebte des Globetrotters
TTITLE2=Apelles Post Tabulam
TTITLE3=Monstersuche
TTITLE4=Einbruch in der Zentrale!
TTITLE5=Der Mikrochip
TTITLE6=Die Zeit läuft ab
TTITLE7=Das Seeungeheuer
TTITLE8=Versteck in den Felsen
TTITLE9=Die Falle schnappt zu
TTITLE10=Tödliche Fluten
TTITLE11=Alle vereint
TTITLE12=Das Rätsel aller Rätsel
EXTD=
EXTT0=
EXTT1=
EXTT2=
EXTT3=
EXTT4=
EXTT5=
EXTT6=
EXTT7=
EXTT8=
EXTT9=
EXTT10=
EXTT11=
EXTT12=
PLAYORDER=
